Patient4_TMGait_0pt7_02_left_03_EMG.mot
version=1
nRows=23
nColumns=33
inDegrees=no
endheader
time	1LAddLong	2LGlutMax	3LGlutMed	4LIliopsoas	5LSemiMemb	6LBicFemLong	7LRecFem	8LVastMed	9LVastLat	10LGasMed	11LTibAnt	12lTibPost	13LPeroneusLong	14LSol	15LExtDigLong	16LFlexDigLong	17RAddLong	18RGlutMax	19RGlutMed	20RIliopsoas	21RSemiMemb	22RBicFemLong	23RRecFem	24RVastMed	25RVastLat	26RGasMed	27RTibAnt	28RTibPost	29RPeroneusLong	30RSol	31RExtDigLong	32RFlexDigLong
3.82	0.015869	-0.18646	-0.23575	-0.009766	0.008698	-0.037994	-0.47775	0.000916	-0.047607	0.7132	-0.005035	0.20874	0.25818	-0.9729	-0.01236	-0.10208	0.018463	-0.3772	0.71838	0.009613	0.27466	0.62958	0.25925	-0.3244	0.11414	-0.000153	0.034943	-0.010986	0.067902	-0.037079	-0.003967	-0.015564
3.821	0.016785	-0.21774	-0.24735	-0.005188	-0.003662	-0.03891	-0.47455	-0.000916	-0.054016	0.4187	-0.001068	0.094147	0.15106	-0.88486	-0.0737	-0.1973	0.019226	-0.3865	0.43304	0.024872	0.30792	0.62546	0.24704	-0.40878	0.054474	-0.022583	0.004272	-0.00946	0.077057	-0.032501	-0.000305	-0.003967
3.822	0.018463	-0.17502	-0.24582	0.004578	0.011749	-0.050049	-0.45868	-0.005951	-0.06897	-0.061646	0.016022	-0.03479	0.065308	-0.33356	-0.08728	-0.089417	-0.057983	-0.43732	0.097046	0.057678	0.033112	0.78507	-0.001526	-0.42816	0.15335	-0.035248	-0.010834	-0.011292	0.10681	-0.043793	-0.001221	-0.015717
3.823	0.018921	-0.14358	-0.25681	0.009766	-0.007324	-0.093079	-0.47226	0.00061	-0.07782	-0.28534	0.026398	-0.057068	0.029602	-0.013275	-0.055237	-0.026855	-0.13245	-0.35996	0.12283	0.017548	0.13504	0.85495	-0.053711	-0.2858	0.69824	-0.038452	-0.030823	-0.020142	0.13916	-0.040741	-0.002441	-0.015717
3.824	0.014496	-0.095978	-0.26718	-0.004578	0.020752	-0.091095	-0.44601	0.004883	-0.087433	-0.3122	0.010986	-0.041351	0.00824	-0.06012	-0.034332	0.015411	-0.11078	-0.2829	0.55512	-0.081787	0.35706	0.74539	-0.006866	-0.016327	0.69931	-0.030365	-0.031128	-0.026093	0.2214	-0.053558	-0.001068	-0.015259
3.825	0.010681	-0.088348	-0.26459	-0.006561	0.012054	-0.013123	-0.43442	0.008545	-0.10559	-0.21912	0.019836	-0.039063	0.022888	-0.043793	-0.030212	0.014496	0.0177	-0.25925	1.6016	-0.19409	0.36468	0.62454	-0.046082	-0.04837	0.59219	0.040283	0.066528	-0.0177	0.22324	-0.037842	-0.002441	-0.014801
3.826	0.006714	-0.11566	-0.27008	0.015717	0.025024	0.053101	-0.43045	0.005798	-0.10468	-0.22034	0.020905	-0.04303	0.033722	0.19333	-0.027313	-0.00824	0.18646	-0.42389	2.088	-0.14648	0.31006	0.078583	-0.007935	-0.25497	0.35278	0.038147	0.103	0.075378	0.22903	-0.046844	-0.003357	-0.010529
3.827	0.010223	-0.096436	-0.28412	0.019684	-0.014954	0.077972	-0.40115	0.013123	-0.10422	-0.18448	0.003357	-0.048065	0.000153	0.18127	-0.009918	-0.021515	0.26154	-0.36987	1.2454	-0.010834	0.13794	-0.39063	-0.17181	-0.48096	0.11643	0.019836	0.073853	0.021362	-0.45227	-0.068512	0.001526	-0.010529
3.828	0.003967	-0.10086	-0.2771	-0.010986	-0.033112	0.11185	-0.4039	0.016785	-0.11032	-0.16296	0.016022	-0.05127	0.032501	0.12894	0.003815	-0.023956	0.19623	-0.07431	0.79025	0.05661	-0.2214	-0.32288	-0.31586	-0.83618	-0.20203	0.012512	0.047455	-0.005798	-0.23575	-0.04715	-0.000305	-0.005646
3.829	0.006561	-0.050659	-0.29266	0.009766	-0.02533	0.11108	-0.38513	0.011902	-0.1294	-0.15945	0.002289	-0.053253	0.021057	0.17258	0.016479	-0.014343	0.096741	0.058746	0.72693	0.14938	-0.54291	0.042877	-0.13184	-0.71564	-0.41275	0.006714	0.032806	-0.010376	0.066681	-0.037994	0.001068	0.006256
3.83	-0.001831	-0.035248	-0.31876	0.010529	0.001221	0.099792	-0.37735	0.007172	-0.13153	-0.16754	0.010681	-0.054169	0.037689	0.11841	0.025787	0.056763	-0.015106	0.2063	0.97229	0.17716	-0.42709	0.50384	-0.39398	-0.32303	-0.43198	0.000916	0.014343	-0.008087	0.11673	-0.010681	0.001373	-0.003967
3.831	0.00412	-0.019684	-0.28809	0.011444	-0.024109	0.07019	-0.4007	0.006409	-0.11597	-0.12787	0.013123	-0.067596	0.029602	0.24323	0.049744	-0.013123	-0.12222	0.065918	0.58151	0.12436	-0.084381	0.97855	-0.63553	0.029755	-0.39597	0.004883	0.035553	-0.011902	0.041351	-0.019836	0.000916	-0.014343
3.832	0.014801	-0.03006	-0.29221	0.005493	-0.059509	0.10162	-0.3833	0.007629	-0.1001	-0.11169	0.002441	-0.070496	0.062866	0.28946	0.056915	-0.14984	-0.16983	-0.052948	0.67307	0.091248	0.45731	0.81696	-0.46204	0.36392	-0.19089	-0.004272	0.067596	-0.005341	-0.033112	-0.04715	-0.002136	-0.015717
3.833	0.006561	-0.022125	-0.31281	0.010834	-0.033264	0.041351	-0.36484	0.006256	-0.090637	-0.15701	0.00824	-0.078278	0.16922	0.30502	0.052185	0.037231	-0.16586	-0.11032	1.2285	0.011749	0.8902	0.52399	-0.10544	0.50232	0.17822	0.007782	0.042114	-0.005188	0.024414	-0.039673	-0.002594	-0.007935
3.834	0.019531	-0.042114	-0.31494	0.01709	0.042877	-0.004578	-0.36209	0.00946	-0.094147	-0.11139	0.002136	-0.096741	0.27115	0.33081	0.042114	-1.0278	-0.093689	-0.17822	1.0211	-0.029144	0.86578	0.35553	-0.17822	0.26794	0.76279	-0.006866	0.029449	-0.00824	0.048676	-0.042725	-0.00412	-0.002136
3.835	0.015106	-0.058746	-0.31494	0	0.032501	0.08194	-0.38193	0.006256	-0.1001	0.070038	0.015717	0.23605	0.19516	0.4245	0.059204	0.003662	-0.013123	-0.16953	0.89004	-0.018616	0.41962	0.081329	-0.27557	0.077362	0.43366	0.007019	0.019531	-0.006256	0.09079	-0.042725	-0.008392	-0.010376
3.836	0.015259	-0.073853	-0.26611	0.003204	0.02243	0.12177	-0.36774	0.004425	-0.092163	0.1976	0.016632	0.086823	0.032043	0.4332	0.042267	0.71716	0.04715	-0.12253	0.91263	0.013123	0.23758	-0.14374	-0.2829	0.022125	-0.32425	-0.008392	0.10819	-0.002594	0.057831	-0.006104	0	-0.004425
3.837	0.013123	-0.070496	-0.24643	-0.011139	0.016327	0.066681	-0.36148	0.005951	-0.078735	-0.000305	0.010529	-0.57709	-0.16922	0.52261	-0.019073	-0.32883	0.079803	-0.1651	0.2919	0.026398	0.12634	-0.35843	-0.14328	-0.12299	-0.26199	-0.005035	0.28412	-0.00351	0.021362	0.019836	0.002136	0.001831
3.838	0.009155	-0.048065	-0.23529	-0.030823	0.038147	-0.010223	-0.36697	-0.002136	-0.079651	-0.12299	0.003357	0.24887	-0.060425	0.40314	-0.035706	-0.2298	0.021973	-0.31372	-0.066681	0.030212	0.2684	-0.3212	0.024261	0.14999	-0.31708	-0.014954	0.43274	-0.003204	0.009613	0.036163	-0.002136	0.002594
3.839	0.008392	-0.036469	-0.23544	-0.018158	0.032043	-0.001526	-0.34424	0.005035	-0.081482	-0.049133	-0.011749	0.023499	-0.073395	0.33234	-0.015717	0.60867	-0.15472	-0.35645	0.013733	-0.00412	0.41901	0.059357	-0.064697	0.66742	-0.27969	-0.011902	0.5452	0.001068	-0.028076	0.022278	-0.00061	-0.010376
3.84	0.012054	-0.095215	-0.23331	0.026245	0.027618	-0.002289	-0.34164	-0.001678	-0.06546	0.11047	-0.012512	-0.16525	-0.089569	0.54672	0.019989	0.20203	-0.21255	-0.34058	0.40573	0.014496	0.62256	0.20981	-0.12482	0.91736	-0.24674	-0.006409	0.39566	-0.007629	0.005798	-0.04303	-0.001526	-0.005035
3.841	0.013733	-0.10391	-0.23727	0.022888	0.008392	0.009308	-0.32394	0.001526	-0.076141	0.23041	-0.007629	-0.15686	0.035553	0.17624	-0.02182	-0.062561	-0.19119	-0.21469	0.82626	-0.006409	0.5986	0.27542	-0.008087	1.2099	-0.30289	-0.007935	0.077667	-0.025482	-0.043182	-0.2446	-0.003815	-0.01709
3.842	0.009613	-0.14374	-0.21668	-0.006866	0.002747	-0.026093	-0.31296	-0.005951	-0.07431	0.15182	-0.020905	-0.052643	0.089569	-0.50156	-0.042419	-0.0177	-0.11078	-0.12497	1.0825	-0.038452	0.53925	0.21362	-0.038605	1.9537	0.22797	-0.003662	-0.63446	-0.020447	-0.068054	-0.28793	0.009308	-0.011902
